<?xml version="1.0" encoding="utf-8"?>
<!-- Generator: Adobe Illustrator 17.1.0, SVG Export Plug-In . SVG Version: 6.00 Build 0)  -->
<!DOCTYPE svg PUBLIC "-//W3C//DTD SVG 1.1//EN" "http://www.w3.org/Graphics/SVG/1.1/DTD/svg11.dtd">
<svg version="1.1" id="Calque_1" xmlns="http://www.w3.org/2000/svg" xmlns:xlink="http://www.w3.org/1999/xlink" x="0px" y="0px"
	 viewBox="0 0 517 454" enable-background="new 0 0 517 454" xml:space="preserve">
<path fill="#FF5F5F" d="M516.946,81.995v229.509c0,20.657-13.079,39.049-32.592,45.829l-270.258,93.914
	c-16.476,5.725-34.757,2.166-47.882-9.323l-149.6-130.955C6.09,301.756,0.054,288.45,0.054,274.463V88.992
	c0-21.829,14.578-40.97,35.622-46.772L182.25,1.809c6.111-1.685,12.492-2.156,18.784-1.386l273.283,33.414
	C498.654,36.812,516.946,57.477,516.946,81.995z"/>
<g>
	
		<path fill="none" stroke="#FFBD38" stroke-width="10" stroke-linecap="round" stroke-linejoin="round" stroke-dasharray="46.8137,46.8137,46.8137,46.8137,46.8137,46.8137" d="
		M484.399,99.572v193.271c0,18.295-11.584,34.584-28.866,40.59l-236.36,83.177c-14.593,5.071-30.784,1.918-42.408-8.257
		L47.268,292.369c-9.321-8.16-14.667-19.945-14.667-32.333V111.77c0-19.333,12.911-36.286,31.549-41.425l126.817-35.792
		c5.412-1.492,11.064-1.909,16.636-1.228l239.04,29.594C468.198,65.555,484.399,77.858,484.399,99.572z"/>
</g>
<path opacity="0.1" d="M192.631,453.618c-9.628-1.107-18.874-5.091-26.416-11.694l-149.6-130.955
	C6.09,301.756,0.054,288.45,0.054,274.463V88.992c0-21.829,14.578-40.97,35.622-46.772L182.25,1.809
	c4.672-1.288,9.503-1.867,14.331-1.724"/>
<g>
	<g>
		<path fill="#FFFFFF" d="M116.312,135.083c2.049-1.483,4.24-2.542,6.574-3.179c2.332-0.633,5.124-0.915,8.374-0.846
			c3.251,0.069,6.179,0.747,8.785,2.031c2.605,1.278,3.902,2.674,3.888,4.19c-0.011,1.225-0.649,2.822-1.908,4.79
			c-1.261,1.973-2.342,2.957-3.24,2.948c-0.212-0.002-0.686-0.211-1.422-0.629c-2-1.078-4.11-1.631-6.331-1.657
			s-3.889,0.163-5.003,0.564c-1.115,0.403-1.94,0.928-2.475,1.575c-0.857,1.12-1.292,2.409-1.306,3.864
			c-0.014,1.456,0.674,2.764,2.065,3.927c1.39,1.159,3.085,2.198,5.089,3.115c2.001,0.916,4.001,1.945,6.001,3.088
			c2,1.14,3.69,2.847,5.072,5.122c1.38,2.27,2.057,5.052,2.027,8.35c-0.03,3.3-0.468,6.256-1.312,8.871
			c-0.845,2.62-1.924,4.737-3.235,6.351c-1.313,1.618-2.875,2.983-4.684,4.093c-3.142,1.861-6.752,2.861-10.829,2.99
			c-4.926,0.156-9.048-0.669-12.366-2.486c-1.895-1.085-2.835-2.441-2.818-4.065c0.067-6.673,0.787-10.021,2.165-10.045
			c0.264-0.005,0.948,0.433,2.051,1.311c3.203,2.508,6.58,3.718,10.128,3.64c2.17-0.048,4.055-0.622,5.653-1.721
			c1.599-1.096,2.411-2.94,2.435-5.538c0.013-1.416-0.478-2.677-1.473-3.786c-0.995-1.11-2.257-1.982-3.785-2.618
			c-1.529-0.636-3.162-1.451-4.898-2.448c-1.736-0.998-3.367-2.044-4.89-3.14c-1.524-1.097-2.778-2.692-3.762-4.788
			c-0.985-2.097-1.46-4.814-1.426-8.145c0.033-3.332,0.67-6.416,1.916-9.252C112.614,138.732,114.262,136.572,116.312,135.083z"/>
		<path fill="#FFFFFF" d="M179.188,180.709c-0.023,2.829-0.253,5.012-0.689,6.551c-0.652,1.943-2.32,3.409-5,4.397
			c-2.684,0.992-5.349,1.534-7.996,1.618c-12.025,0.381-17.98-5.59-17.869-17.914c0.073-8.078,1.746-14.711,5.02-19.876
			c1.663-2.715,3.983-4.813,6.958-6.295c2.975-1.473,6.18-2.194,9.619-2.166c3.437,0.028,6.514,0.493,9.231,1.392
			c2.716,0.895,4.093,2.413,4.128,4.556c-0.007,0.904-0.547,2.2-1.619,3.893c-1.073,1.696-2.004,2.547-2.799,2.549
			c-0.211,0.001-0.633-0.196-1.265-0.593c-2.054-1.188-4.219-1.784-6.493-1.783c-6.983,0.003-10.523,5.614-10.621,16.833
			c-0.028,3.222,0.546,5.597,1.724,7.125c1.178,1.524,3.197,2.252,6.056,2.186s5.991-1.047,9.395-2.937
			c0.85-0.47,1.435-0.708,1.752-0.715C179.04,179.525,179.195,179.918,179.188,180.709z"/>
		<path fill="#FFFFFF" d="M194.056,147.729l2.221,0.017c1.48,0.011,2.603,0.27,3.366,0.776c0.762,0.505,1.142,1.119,1.136,1.84
			c-2.105,19.009-3.159,28.817-3.163,29.373c-0.014,1.837,0.773,2.737,2.361,2.7c0.423-0.01,0.9-0.104,1.431-0.283
			c0.53-0.178,0.822-0.268,0.876-0.269c0.423-0.01,0.632,0.401,0.626,1.232c-0.006,0.832-0.205,2.388-0.592,4.669
			c-0.222,1.393-1.051,2.484-2.487,3.276c-1.436,0.795-2.949,1.218-4.537,1.269c-6.409,0.203-9.585-3.267-9.527-10.41l3.269-31.537
			C189.209,148.589,190.882,147.704,194.056,147.729z M197.045,140.732l-2.22-0.031c-1.481-0.021-2.603-0.288-3.364-0.803
			c-0.764-0.515-1.141-1.136-1.135-1.866l0.768-6.877c0.172-1.787,1.844-2.642,5.016-2.564l2.219,0.055
			c1.479,0.037,2.601,0.314,3.364,0.832c0.761,0.517,1.141,1.137,1.136,1.856l-0.766,6.806
			C201.89,139.914,200.218,140.777,197.045,140.732z"/>
		<path fill="#FFFFFF" d="M221.395,180.185c1.394,1.14,3.204,1.683,5.428,1.632c2.223-0.051,4.291-0.395,6.201-1.032
			c1.91-0.634,3.463-1.259,4.658-1.875c1.195-0.614,1.872-0.923,2.03-0.926c0.423-0.008,0.633,0.363,0.628,1.112
			c-0.005,0.803-0.092,1.944-0.261,3.419c-0.169,1.478-0.307,2.406-0.416,2.783c-0.596,1.999-2.326,3.484-5.191,4.458
			c-2.867,0.978-5.757,1.515-8.669,1.607c-6.304,0.2-10.993-1.24-14.067-4.335c-3.074-3.11-4.59-7.544-4.547-13.284
			c0.067-8.995,2.153-15.649,6.259-19.936c4.104-4.255,9.355-6.346,15.754-6.293c3.015,0.025,5.602,0.45,7.766,1.272
			c2.162,0.819,3.742,1.874,4.739,3.163c1.889,2.359,2.826,4.787,2.809,7.295c-0.031,4.909-1.775,8.595-5.231,11.069
			c-3.457,2.492-7.436,3.778-11.934,3.85c-2.912,0.047-5.664-0.098-8.254-0.44C219.234,176.888,220,179.042,221.395,180.185z
			 M228.344,157.01c-4.392,0.002-7.271,3.058-8.636,9.173l3.81-0.033c3.386-0.03,5.825-0.578,7.314-1.644
			c1.488-1.064,2.238-2.294,2.248-3.697C233.097,158.276,231.518,157.009,228.344,157.01z"/>
		<path fill="#FFFFFF" d="M286.745,157.751l-2.088,20.189c-0.009,1.696,0.781,2.524,2.369,2.488c0.423-0.01,0.9-0.097,1.431-0.263
			c0.529-0.165,0.821-0.249,0.875-0.25c0.422-0.01,0.633,0.369,0.629,1.135c-0.004,0.767-0.197,2.203-0.577,4.308
			c-0.219,1.285-1.045,2.294-2.478,3.029c-1.434,0.737-2.945,1.131-4.534,1.182c-6.409,0.203-9.595-2.994-9.559-9.592l1.929-18.71
			c0.014-2.593-1.342-3.888-4.065-3.886c-2.726,0.002-5.128,1.6-7.21,4.803l-2.688,25.076c-0.168,1.687-1.842,2.579-5.02,2.679
			l-2.224,0.07c-1.483,0.046-2.608-0.157-3.373-0.611c-0.765-0.454-1.145-1.027-1.141-1.718l2.863-26.148
			c0.223-2.067,0.342-3.948,0.352-5.643l-0.131-4.451c0.005-0.847,0.882-1.531,2.631-2.049c1.748-0.516,3.944-0.763,6.589-0.744
			c1.003,0.007,1.65,0.444,1.936,1.311c0.285,0.867,0.475,2.217,0.572,4.051c1.385-1.671,3.231-3.113,5.539-4.326
			c2.308-1.207,4.624-1.8,6.951-1.781C283.304,147.956,286.778,151.241,286.745,157.751z"/>
		<path fill="#FFFFFF" d="M325.791,177.61c-0.009,2.468-0.228,4.372-0.657,5.715c-0.642,1.697-2.303,2.982-4.98,3.854
			c-2.679,0.877-5.342,1.36-7.99,1.444c-12.025,0.381-18.009-4.823-17.957-15.614c0.034-7.073,1.676-12.881,4.926-17.403
			c1.65-2.376,3.959-4.209,6.928-5.503c2.967-1.285,6.17-1.912,9.608-1.884c3.437,0.028,6.516,0.437,9.237,1.224
			c2.721,0.783,4.104,2.107,4.151,3.976c-0.003,0.788-0.536,1.918-1.6,3.394c-1.064,1.479-1.992,2.222-2.786,2.224
			c-0.211,0.001-0.634-0.171-1.267-0.517c-2.059-1.036-4.227-1.556-6.501-1.555c-6.983,0.003-10.496,4.909-10.54,14.717
			c-0.013,2.817,0.573,4.892,1.758,6.224c1.185,1.329,3.208,1.959,6.067,1.893c2.859-0.066,5.986-0.931,9.381-2.59
			c0.848-0.412,1.432-0.622,1.749-0.628C325.637,176.578,325.794,176.92,325.791,177.61z"/>
		<path fill="#FFFFFF" d="M346.954,177.489c1.399,1.007,3.211,1.483,5.436,1.432c2.224-0.051,4.289-0.361,6.197-0.93
			c1.907-0.566,3.458-1.123,4.65-1.671c1.192-0.546,1.868-0.821,2.026-0.824c0.423-0.008,0.635,0.32,0.633,0.982
			c-0.002,0.71-0.083,1.719-0.245,3.025c-0.162,1.308-0.297,2.128-0.403,2.462c-0.587,1.77-2.31,3.089-5.172,3.96
			c-2.863,0.876-5.751,1.362-8.663,1.454c-6.304,0.2-10.999-1.061-14.088-3.796c-3.088-2.751-4.623-6.683-4.605-11.779
			c0.029-7.986,2.086-13.893,6.173-17.697c4.085-3.772,9.327-5.621,15.726-5.569c3.015,0.025,5.604,0.403,7.772,1.133
			c2.166,0.726,3.751,1.66,4.753,2.801c1.899,2.086,2.847,4.233,2.842,6.449c-0.01,4.339-1.737,7.599-5.182,9.792
			c-3.446,2.21-7.419,3.355-11.918,3.428c-2.912,0.047-5.665-0.077-8.256-0.375C344.779,174.572,345.554,176.48,346.954,177.489z
			 M353.802,156.949c-4.392,0.002-7.257,2.711-8.596,8.132l3.81-0.033c3.386-0.03,5.822-0.518,7.307-1.463
			c1.484-0.943,2.228-2.032,2.232-3.274C358.56,158.068,356.976,156.947,353.802,156.949z"/>
		<path fill="#FFBD38" d="M121.209,276.947c1.394,1.135,3.207,1.588,5.438,1.362c2.23-0.226,4.305-0.759,6.223-1.6
			c1.918-0.838,3.478-1.638,4.678-2.402c1.201-0.762,1.881-1.151,2.04-1.166c0.424-0.042,0.634,0.348,0.626,1.165
			c-0.008,0.876-0.099,2.127-0.273,3.75c-0.174,1.625-0.317,2.648-0.426,3.068c-0.605,2.227-2.344,3.977-5.222,5.256
			c-2.879,1.284-5.779,2.088-8.7,2.409c-6.323,0.695-11.02-0.518-14.094-3.653c-3.073-3.151-4.578-7.859-4.516-14.109
			c0.098-9.793,2.212-17.197,6.345-22.188c4.131-4.958,9.405-7.651,15.824-8.103c3.024-0.213,5.618,0.046,7.785,0.771
			c2.166,0.722,3.747,1.747,4.743,3.075c1.886,2.425,2.817,5.001,2.792,7.739c-0.049,5.36-1.811,9.518-5.285,12.485
			c-3.476,2.985-7.471,4.695-11.983,5.121c-2.92,0.276-5.68,0.33-8.277,0.158C119.053,273.522,119.814,275.809,121.209,276.947z
			 M128.258,251.156c-4.406,0.348-7.303,3.902-8.694,10.67l3.822-0.333c3.396-0.296,5.844-1.084,7.341-2.362
			c1.496-1.276,2.253-2.675,2.267-4.206C133.021,252.161,131.442,250.905,128.258,251.156z"/>
		<path fill="#FFBD38" d="M186.832,247.375l-2.168,22.27c-0.015,1.857,0.774,2.704,2.367,2.543c0.424-0.043,0.903-0.175,1.436-0.398
			c0.531-0.221,0.824-0.335,0.879-0.341c0.424-0.043,0.633,0.356,0.627,1.196c-0.007,0.841-0.205,2.428-0.595,4.763
			c-0.224,1.425-1.056,2.592-2.496,3.505c-1.44,0.915-2.957,1.462-4.551,1.637c-6.429,0.707-9.612-2.55-9.552-9.769l2.002-20.617
			c0.024-2.838-1.332-4.149-4.063-3.932c-2.734,0.217-5.149,2.153-7.249,5.816l-2.785,27.612c-0.175,1.856-1.856,2.958-5.044,3.307
			l-2.231,0.244c-1.488,0.163-2.615,0.026-3.38-0.411c-0.766-0.438-1.145-1.034-1.138-1.789l2.963-28.77
			c0.231-2.275,0.356-4.338,0.373-6.19l-0.115-4.85c0.008-0.925,0.89-1.742,2.646-2.446c1.755-0.702,3.959-1.147,6.612-1.336
			c1.007-0.072,1.653,0.354,1.937,1.28c0.283,0.925,0.469,2.386,0.559,4.383c1.395-1.936,3.252-3.658,5.571-5.168
			c2.319-1.503,4.644-2.336,6.979-2.5C183.417,236.921,186.889,240.243,186.832,247.375z"/>
		<path fill="#FFFFFF" d="M216.535,243.041l-0.126-4.584c0.006-0.875,0.887-1.65,2.641-2.323c1.755-0.67,3.958-1.1,6.61-1.288
			c1.485-0.106,2.323,1.458,2.513,4.691c2.679-4.034,6.166-6.196,10.463-6.498c4.297-0.302,7.709,0.962,10.237,3.78
			c2.528,2.804,3.775,6.953,3.741,12.457c-0.047,7.621-1.837,13.961-5.372,19.042c-3.536,5.112-8.093,7.985-13.672,8.599
			c-2.976,0.327-5.809-0.443-8.504-2.319l-1.87,16.985c-0.172,1.759-1.852,2.838-5.042,3.235l-2.232,0.278
			c-1.489,0.185-2.617,0.079-3.383-0.32c-0.767-0.399-1.148-0.956-1.143-1.669l4.78-44.212
			C216.401,246.742,216.522,244.791,216.535,243.041z M230.925,267.738c3.079-0.312,5.466-1.909,7.156-4.786
			c1.69-2.867,2.552-6.84,2.585-11.924c0.037-5.619-2.148-8.253-6.552-7.905c-2.283,0.181-4.417,1.998-6.402,5.459
			c-0.172,1.856-0.77,7.782-1.795,17.793C227.396,267.474,229.065,267.927,230.925,267.738z"/>
		<path fill="#FFFFFF" d="M259.014,256.847c0.041-6.892,1.615-12.832,4.721-17.798c1.605-2.528,3.884-4.591,6.837-6.188
			c2.951-1.588,6.417-2.519,10.395-2.799c5.675-0.399,9.965,0.728,12.869,3.369c2.904,2.626,4.344,6.669,4.318,12.142
			c-0.036,7.705-2.004,13.866-5.901,18.509c-3.899,4.674-9.249,7.398-16.049,8.145c-5.685,0.625-9.98-0.364-12.884-2.982
			C260.415,266.614,258.98,262.477,259.014,256.847z M277.208,263.047c2.761-0.28,4.932-1.799,6.513-4.551
			c1.579-2.744,2.382-6.523,2.407-11.344c0.029-5.64-2.026-8.297-6.165-7.97c-2.814,0.222-5.009,1.705-6.588,4.45
			c-1.581,2.756-2.384,6.606-2.412,11.548C270.931,260.85,273.013,263.472,277.208,263.047z"/>
		<path fill="#FFFFFF" d="M336.006,255.183c-0.008,2.442-0.227,4.343-0.656,5.706c-0.643,1.73-2.309,3.131-4.993,4.206
			c-2.687,1.079-5.358,1.767-8.013,2.059c-12.061,1.326-18.066-3.351-18.017-14.032c0.032-7.001,1.676-12.878,4.933-17.607
			c1.654-2.48,3.97-4.476,6.947-5.99c2.976-1.505,6.187-2.377,9.636-2.619c3.448-0.242,6.536-0.08,9.266,0.484
			c2.729,0.561,4.117,1.762,4.165,3.607c-0.003,0.779-0.537,1.939-1.603,3.484c-1.067,1.547-1.997,2.354-2.794,2.419
			c-0.212,0.017-0.636-0.119-1.271-0.411c-2.066-0.863-4.241-1.206-6.522-1.026c-7.004,0.553-10.526,5.683-10.566,15.39
			c-0.011,2.788,0.577,4.795,1.766,6.02c1.189,1.221,3.219,1.685,6.086,1.395c2.868-0.291,6.004-1.393,9.409-3.302
			c0.85-0.475,1.436-0.728,1.754-0.759C335.85,254.174,336.008,254.501,336.006,255.183z"/>
		<path fill="#FFFFFF" d="M365.873,253.35l1.871-17.198c0.005-2.363-1.425-3.431-4.29-3.204c-2.441,0.194-4.727,1.734-6.856,4.63
			l-2.772,23.382c-0.163,1.552-1.839,2.502-5.027,2.851l-2.231,0.244c-1.488,0.163-2.617,0.069-3.385-0.283
			c-0.769-0.353-1.152-0.845-1.15-1.476l5.969-50.765c0.164-1.552,1.836-2.413,5.016-2.585l2.227-0.12
			c1.483-0.08,2.61,0.074,3.378,0.462c0.767,0.387,1.151,0.891,1.149,1.509l-2.197,18.748c1.436-1.491,3.216-2.777,5.34-3.858
			c2.124-1.076,4.247-1.687,6.369-1.837c7.002-0.492,10.498,2.226,10.487,8.152l-2.025,18.538c-0.003,1.544,0.792,2.234,2.385,2.073
			c0.424-0.043,0.903-0.161,1.434-0.355c0.53-0.193,0.823-0.293,0.877-0.298c0.424-0.043,0.636,0.285,0.635,0.982
			c-0.001,0.698-0.19,2.02-0.564,3.966c-0.215,1.187-1.04,2.171-2.475,2.956c-1.435,0.787-2.95,1.269-4.544,1.445
			C369.066,262.016,365.859,259.363,365.873,253.35z"/>
		<path fill="#FFFFFF" d="M402.238,248.904c1.405,0.838,3.224,1.142,5.455,0.916c2.23-0.226,4.302-0.683,6.214-1.372
			c1.912-0.686,3.466-1.334,4.661-1.946c1.195-0.61,1.872-0.922,2.031-0.938c0.424-0.042,0.637,0.251,0.637,0.875
			c0,0.669-0.08,1.626-0.24,2.869c-0.16,1.245-0.293,2.029-0.399,2.352c-0.585,1.715-2.311,3.096-5.18,4.147
			c-2.87,1.056-5.765,1.746-8.687,2.067c-6.323,0.695-11.036-0.117-14.14-2.45c-3.103-2.349-4.652-5.938-4.644-10.75
			c0.011-7.54,2.062-13.279,6.154-17.191c4.089-3.88,9.343-6.034,15.762-6.485c3.024-0.213,5.622-0.058,7.797,0.46
			c2.174,0.515,3.766,1.271,4.774,2.266c1.91,1.816,2.865,3.764,2.865,5.852c0,4.088-1.725,7.295-5.176,9.635
			c-3.452,2.356-7.435,3.751-11.947,4.178c-2.92,0.276-5.682,0.378-8.282,0.303C400.05,246.326,400.832,248.064,402.238,248.904z
			 M409.062,228.991c-4.406,0.348-7.273,3.128-8.605,8.348l3.822-0.333c3.396-0.296,5.839-0.949,7.326-1.957
			c1.486-1.006,2.231-2.091,2.231-3.262C413.837,229.672,412.246,228.74,409.062,228.991z"/>
	</g>
</g>
</svg>
