<?xml version="1.0" encoding="UTF-8"?>
<svg xmlns="http://www.w3.org/2000/svg" xmlns:xlink="http://www.w3.org/1999/xlink" width="504pt" height="504pt" viewBox="0 0 504 504" version="1.1">
<defs>
<clipPath id="clip1">
  <path d="M 59.039063 59.039063 L 474.757813 59.039063 L 474.757813 431.558594 L 59.039063 431.558594 Z M 59.039063 59.039063 "/>
</clipPath>
</defs>
<g id="surface21">
<g clip-path="url(#clip1)" clip-rule="nonzero">
<path style="fill-rule:nonzero;fill:rgb(92.156863%,98.431373%,100%);fill-opacity:1;stroke-width:0.75;stroke-linecap:round;stroke-linejoin:round;stroke:rgb(0%,0%,0%);stroke-opacity:1;stroke-miterlimit:10;" d="M 404 244.800781 L 403.929688 240.378906 L 403.714844 235.964844 L 403.359375 231.558594 L 402.863281 227.164063 L 402.226563 222.789063 L 401.449219 218.4375 L 400.535156 214.113281 L 399.480469 209.820313 L 398.285156 205.5625 L 396.957031 201.347656 L 395.496094 197.175781 L 393.898438 193.050781 L 392.171875 188.984375 L 390.3125 184.972656 L 388.328125 181.019531 L 386.214844 177.136719 L 383.980469 173.324219 L 381.621094 169.582031 L 379.148438 165.921875 L 376.554688 162.339844 L 373.847656 158.84375 L 371.03125 155.4375 L 368.105469 152.121094 L 365.078125 148.902344 L 361.945313 145.78125 L 358.714844 142.761719 L 355.390625 139.851563 L 351.972656 137.046875 L 348.46875 134.351563 L 344.875 131.773438 L 341.203125 129.308594 L 337.457031 126.964844 L 333.632813 124.746094 L 329.742188 122.648438 L 325.785156 120.675781 L 321.769531 118.832031 L 317.691406 117.117188 L 313.566406 115.535156 L 309.386719 114.085938 L 305.167969 112.773438 L 300.90625 111.597656 L 296.609375 110.558594 L 292.28125 109.65625 L 287.925781 108.894531 L 266.398438 244.800781 Z M 404 244.800781 "/>
<path style="fill-rule:nonzero;fill:rgb(76.470588%,81.960784%,83.137255%);fill-opacity:1;stroke-width:0.75;stroke-linecap:round;stroke-linejoin:round;stroke:rgb(0%,0%,0%);stroke-opacity:1;stroke-miterlimit:10;" d="M 287.925781 108.894531 L 283.574219 108.277344 L 279.203125 107.796875 L 274.820313 107.457031 L 270.429688 107.257813 L 266.035156 107.199219 L 261.636719 107.28125 L 257.25 107.503906 L 252.867188 107.867188 L 248.5 108.371094 L 244.152344 109.011719 L 239.824219 109.789063 L 235.527344 110.707031 L 231.257813 111.761719 L 227.027344 112.953125 L 222.835938 114.277344 L 218.6875 115.738281 L 214.589844 117.328125 L 210.542969 119.046875 L 206.554688 120.894531 L 202.628906 122.871094 L 198.765625 124.96875 L 194.972656 127.191406 L 191.253906 129.53125 L 187.609375 131.992188 L 184.046875 134.566406 L 180.566406 137.253906 L 177.175781 140.050781 L 173.875 142.953125 L 170.667969 145.960938 L 167.558594 149.070313 L 164.554688 152.273438 L 161.648438 155.574219 L 158.851563 158.96875 L 156.164063 162.445313 L 153.589844 166.007813 L 151.132813 169.652344 L 148.789063 173.375 L 146.570313 177.167969 L 144.46875 181.027344 L 142.496094 184.957031 L 140.648438 188.945313 L 138.925781 192.988281 L 137.335938 197.089844 L 135.878906 201.234375 L 134.554688 205.425781 L 133.363281 209.660156 L 132.308594 213.925781 L 131.390625 218.226563 L 130.609375 222.550781 L 129.96875 226.898438 L 129.46875 231.265625 L 129.105469 235.648438 L 128.882813 240.039063 L 128.800781 244.433594 L 128.859375 248.828125 L 129.058594 253.21875 L 129.398438 257.601563 L 129.875 261.972656 L 130.492188 266.324219 L 266.398438 244.800781 Z M 287.925781 108.894531 "/>
<path style="fill-rule:nonzero;fill:rgb(60.784314%,65.098039%,65.882353%);fill-opacity:1;stroke-width:0.75;stroke-linecap:round;stroke-linejoin:round;stroke:rgb(0%,0%,0%);stroke-opacity:1;stroke-miterlimit:10;" d="M 130.492188 266.324219 L 131.257813 270.6875 L 132.160156 275.023438 L 133.203125 279.328125 L 134.382813 283.597656 L 135.699219 287.824219 L 137.152344 292.011719 L 138.738281 296.144531 L 140.457031 300.226563 L 142.304688 304.25 L 144.285156 308.214844 L 146.386719 312.113281 L 148.617188 315.9375 L 150.964844 319.691406 L 153.4375 323.367188 L 156.023438 326.964844 L 158.726563 330.472656 L 161.539063 333.894531 L 164.460938 337.222656 L 167.488281 340.457031 L 170.617188 343.589844 L 173.847656 346.621094 L 177.171875 349.546875 L 180.589844 352.363281 L 184.09375 355.070313 L 187.6875 357.660156 L 191.359375 360.136719 L 195.109375 362.492188 L 198.933594 364.726563 L 202.828125 366.835938 L 206.789063 368.816406 L 210.8125 370.671875 L 214.890625 372.394531 L 219.023438 373.988281 L 223.207031 375.445313 L 227.433594 376.765625 L 231.699219 377.953125 L 236.003906 379 L 240.339844 379.910156 L 244.699219 380.679688 L 249.082031 381.304688 L 253.484375 381.792969 L 257.902344 382.136719 L 262.324219 382.339844 L 266.753906 382.398438 L 271.183594 382.316406 L 275.605469 382.089844 L 280.019531 381.722656 L 284.417969 381.214844 L 288.800781 380.566406 L 293.15625 379.773438 L 297.488281 378.84375 L 301.785156 377.773438 L 306.046875 376.566406 L 310.265625 375.21875 L 314.441406 373.742188 L 318.566406 372.128906 L 322.636719 370.382813 L 326.648438 368.507813 L 330.597656 366.503906 L 334.484375 364.375 L 338.296875 362.125 L 266.398438 244.800781 Z M 130.492188 266.324219 "/>
<path style="fill-rule:nonzero;fill:rgb(45.098039%,48.235294%,49.019608%);fill-opacity:1;stroke-width:0.75;stroke-linecap:round;stroke-linejoin:round;stroke:rgb(0%,0%,0%);stroke-opacity:1;stroke-miterlimit:10;" d="M 338.296875 362.125 L 342.121094 359.691406 L 345.863281 357.136719 L 349.519531 354.457031 L 353.085938 351.664063 L 356.558594 348.75 L 359.929688 345.722656 L 363.203125 342.589844 L 366.371094 339.347656 L 369.429688 336.003906 L 372.378906 332.5625 L 375.210938 329.027344 L 377.925781 325.398438 L 380.519531 321.679688 L 382.988281 317.882813 L 385.332031 314.003906 L 387.546875 310.046875 L 389.628906 306.023438 L 391.578125 301.933594 L 393.390625 297.777344 L 395.066406 293.570313 L 396.605469 289.304688 L 398 284.992188 L 399.25 280.636719 L 400.359375 276.242188 L 401.320313 271.816406 L 402.136719 267.359375 L 402.808594 262.875 L 403.328125 258.375 L 403.703125 253.859375 L 403.925781 249.332031 L 404 244.800781 L 266.398438 244.800781 Z M 338.296875 362.125 "/>
</g>
</g>
</svg>
